<svg width="60" height="60" viewBox="0 0 60 60" fill="none" xmlns="http://www.w3.org/2000/svg">
<rect width="60" height="60" rx="16" fill="#925CF0"/>
<path d="M28.3335 39.3333H33.3335V42.6667C33.3335 43.1087 33.5091 43.5326 33.8217 43.8452C34.1342 44.1577 34.5581 44.3333 35.0002 44.3333H38.3335C38.7755 44.3333 39.1994 44.1577 39.512 43.8452C39.8246 43.5326 40.0002 43.1087 40.0002 42.6667V37.6667C40.7765 37.4082 41.482 36.9724 42.0606 36.3938C42.6392 35.8152 43.075 35.1097 43.3335 34.3333H45.0002C45.4422 34.3333 45.8661 34.1577 46.1787 33.8452C46.4912 33.5326 46.6668 33.1087 46.6668 32.6667V29.3333C46.6668 28.8913 46.4912 28.4674 46.1787 28.1548C45.8661 27.8423 45.4422 27.6667 45.0002 27.6667H43.3335C43.3335 26.373 43.0323 25.097 42.4537 23.9399C41.8752 22.7828 41.0351 21.7762 40.0002 21V16C38.9652 16 37.9444 16.241 37.0187 16.7038C36.093 17.1667 35.2878 17.8387 34.6668 18.6667L34.1668 19.3333H28.3335C25.6813 19.3333 23.1378 20.3869 21.2624 22.2623C19.3871 24.1376 18.3335 26.6812 18.3335 29.3333V31C18.3335 32.2937 18.6347 33.5697 19.2133 34.7268C19.7918 35.8839 20.6319 36.8904 21.6668 37.6667V42.6667C21.6668 43.1087 21.8424 43.5326 22.155 43.8452C22.4675 44.1577 22.8915 44.3333 23.3335 44.3333H26.6668C27.1089 44.3333 27.5328 44.1577 27.8453 43.8452C28.1579 43.5326 28.3335 43.1087 28.3335 42.6667V39.3333Z" stroke="#FCFCFC" stroke-width="2" stroke-linecap="round" stroke-linejoin="round"/>
<path d="M36.6665 27.6667H36.6832" stroke="#FCFCFC" stroke-width="2" stroke-linecap="round" stroke-linejoin="round"/>
<path d="M13.3335 24.3333V26C13.3335 26.884 13.6847 27.7319 14.3098 28.357C14.9349 28.9821 15.7828 29.3333 16.6668 29.3333H18.3335" stroke="#FCFCFC" stroke-width="2" stroke-linecap="round" stroke-linejoin="round"/>
</svg>
